<svg width="305" height="295" viewBox="0 0 305 295" fill="none" xmlns="http://www.w3.org/2000/svg">
<path d="M141.255 139.727C141.255 139.27 141.255 137.7 140.545 136.056C139.681 134.057 135.579 139.413 133.375 143.487C132.366 145.353 132.298 147.156 133.73 149.725C137.372 156.259 146.36 163.25 151.347 169.566C154.578 173.658 136.292 174.581 121.778 182.465C99.4838 194.576 85.9689 205.273 84.5429 204.204C79.246 200.236 93.4231 189.205 103.997 180.454C126.62 161.73 140.717 161.975 146.885 159.787C150.93 158.353 147.427 147.456 143.355 137.731C141.936 134.343 139.687 135.206 134.468 147.56C129.249 159.914 120.58 184.017 115.179 197.494C109.778 210.972 107.907 213.094 105.446 214.499C102.986 215.904 99.9919 216.527 97.5134 215.6C92.3285 213.662 90.1091 200.492 88.6813 182.159C87.2631 163.95 91.0236 149.594 94.709 140.608C96.4344 136.401 99.6134 133.737 102.276 132.259C104.938 130.781 107.433 130.781 110.965 132.589C134.269 144.524 141.626 171.853 143.762 171.432C149.452 170.309 145.231 154.292 138.83 137.403C131.185 117.228 117.573 104.233 104.283 97.758C84.9594 88.3443 63.6338 95.3444 49.8986 99.5231C42.5682 101.753 34.7346 104.924 32.9831 105.218C29.4133 105.818 52.9634 100.825 79.412 104.396C93.7492 106.332 109.03 113.593 123.291 121.792C151.486 138.002 165.269 150.481 169.483 148.918C181.378 144.506 180.79 128.31 179.861 127.235C167.575 113.01 152.274 162.87 149.691 168.847C148.525 171.545 147.984 173.7 150.349 172.775C152.714 171.85 158.085 167.816 165.89 157.778C173.694 147.74 183.768 131.822 190.83 121.5C197.892 111.178 201.637 106.935 203.441 106.371C206.398 105.447 200.261 133.113 196.717 156.699C191.028 194.563 222.135 110.857 224.771 110.466C226.435 110.219 228.156 113.818 229.361 128.65C230.566 143.482 231.049 170.447 231.484 185.71C231.919 200.974 232.293 203.719 233.163 204.82C234.034 205.921 235.391 205.293 237.791 194.192C240.191 183.091 243.592 161.535 245.345 148.43C247.624 131.385 246.849 125.203 244.912 122.301C243.849 120.709 240.104 121.647 235.633 124.649C231.163 127.651 225.437 133.397 219.018 142.114C204.643 161.634 195.871 180.743 192.369 189.963C191.901 191.195 197.533 178.216 204.563 156.07C207.871 145.652 209.538 136.564 209.889 126.877C210.606 107.083 206.354 94.3188 202.28 90.4153C196.858 85.2203 184.424 89.7552 170.39 95.2483C138.398 107.77 126.483 112.537 122.142 111.173C115.823 109.188 129.449 88.1656 137.595 79.9862C140.784 76.7849 140.871 102.393 138.501 131.71C136.13 161.027 130.997 200.149 127.666 222.236C123.733 248.318 120.425 253.922 118.162 256.071C106.748 266.91 101.623 213.788 98.3534 208.686C97.0048 206.582 95.5822 205.957 93.0053 206.383C74.7246 209.404 63.3029 225.469 61.2347 225.253C57.671 224.881 60.7841 204.8 64.5884 179.096C66.1935 168.251 68.0036 162.007 69.9482 157.775C71.8929 153.543 74.1386 151.547 77.1047 151.33C83.8192 150.837 94.5466 161.58 113.116 181.758C124.843 194.502 140.091 213.369 149.965 223.267C159.84 233.165 163.583 233.788 167.072 231.737C170.562 229.685 173.683 224.939 176.587 215.179C179.491 205.418 182.083 190.786 183.313 176.329C184.544 161.872 184.334 148.033 184.477 136.705C184.621 125.376 185.123 116.977 183.948 112.09C182.772 107.202 179.903 106.079 176.803 105.813C170.473 105.269 153.313 110.447 129.062 116.205C112.214 120.205 100.708 118.736 92.407 117.23C77.2336 114.476 65.6785 99.8972 57.7126 85.8114C56.6083 83.8587 55.5601 85.0603 54.8 87.6959C50.2472 103.481 46.7348 115.557 44.3453 119.583C43.2657 121.402 42.2056 122.612 41.0295 120.648C30.3901 102.879 42.074 81.9999 44.9606 78.9777C48.0046 75.7908 60.4803 84.5107 79.5638 103.253C90.3947 113.89 100.772 129.473 107.41 138.097C115.652 148.805 119.97 151.145 123.994 152.09C125.873 152.531 127.519 152.411 129.913 151.163C135.823 148.083 144.237 134.991 154.579 112.966C160.131 101.144 163.05 86.6186 162.086 103.656C161.122 120.693 155.357 169.377 152.759 194.88C150.161 220.382 150.905 221.228 154.344 219.358C164.483 213.845 175.74 199.92 186.898 179.125C193.414 166.983 198.006 149.82 201.127 134.453C204.248 119.085 204.824 105.575 204.703 94.6268C204.493 75.6793 200.514 62.743 195.362 55.31C193.157 52.129 189.461 52.1202 184.081 54.2585C178.702 56.3969 171.157 61.1871 158.634 71.1974C146.111 81.2078 128.837 96.2933 119.298 105.216C102.298 121.118 97.997 139.431 93.5648 143.706C92.7206 144.521 90.9344 141.91 90.669 129.968C90.4037 118.027 91.4146 95.6874 93.7402 74.8035C96.0659 53.9196 99.6757 35.1683 102.112 26.6723C104.548 18.1764 105.701 20.5039 107.204 25.3423C110.931 37.3404 116.855 54.1335 124.918 69.4707C130.023 79.1811 138.336 83.9558 147.138 87.9237C154.893 91.4195 162.674 89.6557 169.333 87.7779C185.136 83.3215 191.161 70.6542 194.942 68.2804C210.828 58.3067 204.156 103.141 207.105 106.037C208.644 107.549 211.426 107.685 215.519 106.382C239.915 98.6173 249.401 78.0981 250.834 79.977C252.643 82.3476 252.616 89.6069 253.751 104.211C254.886 118.815 256.152 141.059 257.241 154.015C258.33 166.971 259.203 169.967 260.527 171.759C261.85 173.551 263.598 174.049 265.808 172.123C271.789 166.91 275.335 153.845 275.771 150.54C278.561 129.38 262.828 192.965 262.364 200.66C262.236 202.777 264.49 201.119 265.437 198.287C266.385 195.455 266.51 191.463 266.325 188.908C266.14 186.353 265.642 185.355 263.638 184.903C258.266 183.692 247.948 189.386 227.688 206.281C213.611 218.02 193.481 238.101 181.527 248.887C169.574 259.672 166.83 261.044 163.794 259.567C156.081 255.814 151.8 243.729 144.902 230.261C140.724 222.102 133.776 212.005 123.032 199.335C112.288 186.666 97.6014 171.922 86.7253 162.682C70.3245 148.748 54.2969 146.013 37.5816 145.876C28.9547 145.806 20.121 148.486 21.0703 144.818C25.5091 127.666 51.5207 118.078 63.9357 111.58C72.0659 107.325 83.1746 108.184 100.99 112.11C111.625 114.455 124.766 120.372 136.983 124.341C159.658 131.707 175.309 133.406 184.795 132.156C196.031 130.676 204.31 124.73 209.217 120.645C211.527 118.722 212.877 116.436 213.212 114.47C213.547 112.503 212.674 110.756 210.041 110.542C207.408 110.328 203.041 111.701 193.804 118.706C184.567 125.711 170.591 138.306 163.035 143.049C155.479 147.792 154.765 144.3 154.211 139.88C151.489 118.18 146.734 103.286 143.221 101.269C141.206 100.111 137.713 101.245 134.096 104.455C130.48 107.666 126.588 113.573 122.264 124.135C117.94 134.697 113.301 149.735 108.633 168.786C103.966 187.837 99.4113 210.445 95.8797 222.279C92.348 234.112 89.9774 234.485 87.6957 233.742C85.4141 232.999 83.2933 231.128 75.8893 219.101C68.4853 207.075 55.8624 184.949 49.5406 174.462C43.2188 163.975 43.5806 165.797 47.0186 174.661C56.6516 199.498 65.0327 217.953 67.9855 221.793C69.3538 223.572 71.3118 224.261 73.3966 224.212C75.4814 224.163 77.852 223.164 88.4353 213.136C99.0185 203.108 117.743 184.083 135.872 168.543C154.002 153.002 170.97 141.524 180.771 134.613C192.934 126.037 196.001 121.029 197.454 114.563C201.082 98.4052 192.25 91.0255 189.357 87.8147C188.118 86.4403 186.713 86.2266 184.76 86.9073C179.871 88.6112 173.794 101.367 168.011 119.996C163.608 134.18 166.283 145.197 168.421 151.996C169.281 154.731 170.309 155.801 171.694 156.629C173.079 157.457 174.95 157.957 176.788 157.528C180.695 156.616 186.609 144.765 194.168 127.098C200.184 113.036 201.21 97.7314 201.366 80.8453C201.527 63.3549 196.73 50.8893 192.647 44.1617C184.866 31.337 170.683 29.4468 160.991 26.9925C157.166 26.0238 155.549 25.6596 153.223 29.4188C150.897 33.178 147.907 41.0826 144.057 59.5193C140.208 77.956 135.588 106.685 132.286 124.127C126.041 157.111 115.168 164.76 112.853 166.02C111.613 166.695 109.931 166.779 108.423 166.038C106.916 165.298 105.555 163.56 101.359 143.809C97.1636 124.058 90.1751 86.3456 86.2009 65.7952C82.2267 45.2449 81.4786 42.9991 80.544 41.97C79.6094 40.9409 78.511 41.1965 77.8202 42.7634C75.9904 46.9137 79.1206 59.5227 84.9357 76.7517C89.9803 91.6977 103.949 103.639 118.06 115.199C129.3 124.406 141.396 126.547 151.97 127.121C171.211 128.167 179.004 117.759 181.592 119.061C204.289 130.479 181.414 154.039 183.857 157.379C185.111 159.092 188.67 158.348 190.836 157.473C193.002 156.598 194.25 154.977 194.705 150.898C195.878 140.394 192.654 129.652 189.197 122.606C187.655 119.463 185.864 117.556 182.658 116.902C179.452 116.248 174.712 116.996 169.706 120.47C164.7 123.945 159.571 130.124 154.425 138.914C143.092 158.274 137.589 177.197 135.091 189.817C132.985 200.456 133.607 207.213 134.98 208.673C135.757 209.5 138.092 206.513 138.929 202.552C139.766 198.591 139.391 192.727 136.651 182.506C133.91 172.284 128.816 157.884 124.374 148.269C117.592 133.591 106.686 126.991 96.3036 122.831C82.5197 117.309 70.4804 124.937 66.7658 127.821C64.8554 129.305 65.1705 132.95 70.1155 145.074C75.0605 157.198 85.208 178.232 89.2975 188.637C93.387 199.042 91.1111 198.181 84.4766 191.471C77.842 184.761 66.9178 172.228 59.4184 164.212C48.6075 152.656 43.0711 149.488 40.1826 149.046C38.5593 148.798 36.546 149.226 35.2055 149.978C26.5069 154.857 36.7353 179.664 41.7189 190.66C42.671 192.761 43.5482 193.945 44.7405 192.718C58.0042 179.072 51.9763 153.542 53.3573 151.146C54.4688 149.218 61.7905 165.122 69.8307 189.268C73.0255 198.862 73.7254 203.285 74.6742 203.6C78.5187 204.878 78.6469 187.079 81.2818 173.282C82.2357 168.287 85.1645 168.094 88.2556 169.898C107.773 181.286 116.193 199.456 119.966 200.907C121.765 201.6 123.737 200.736 126.135 197.235C132.516 187.919 136.479 171.58 140.436 157.91C141.836 153.074 143.76 153.103 147.957 156.722C159.76 166.898 168.457 175.66 173.047 175.229C178.086 174.757 182.687 161.015 188.977 147.772C191.062 143.381 194.268 145.758 197.111 149.591C209.928 166.872 214.21 174.644 217.542 176.285C219.115 177.06 220.997 176.178 222.832 174.486C227.152 170.503 230.219 157.695 232.688 140.898C236.206 116.963 228.113 103.846 226.667 101.824C219.314 91.5416 228.729 137.334 230.486 139.67C231.222 140.648 233.239 139.137 234.512 135.313C242.738 110.589 236.811 87.5758 237.093 86.9431C243.674 72.1567 244.499 120.29 245.391 130.047C246.117 137.977 244.527 142.979 242.768 145.496C241.234 147.691 238.363 149.539 227.857 156.605C219.073 162.513 203.375 173.277 194.852 177.997C186.33 182.717 185.483 181.103 184.984 178.026C184.485 174.949 184.36 170.457 184.358 166.773C184.355 160.346 184.571 179.369 185.461 221.133C185.885 241.069 188.286 258.382 187.888 261.625C186.828 270.273 176.507 230.327 166.012 210.462C158.279 195.824 147.032 189.412 138.723 185.314C132.298 182.146 125.336 182.947 119.108 184.328C108.127 186.763 104.01 198.941 103.251 202.898C102.834 205.072 103.492 207.727 104.303 207.643C107.875 207.274 103.529 193.238 94.0433 175.075C88.9219 165.269 82.0907 154.852 76.3683 146.812C57.9113 120.882 41.415 112.685 42.419 110.382C46.4388 101.161 71.7713 110.508 94.3585 115.866C105.343 118.472 114.978 122.334 120.644 123.345C126.31 124.356 127.616 122.778 128.539 114.166C131.124 90.0519 130.975 70.3913 132.041 63.981C132.528 61.0497 133.23 58.8299 134.419 57.9396C148.85 47.1331 167.467 96.8963 170.079 94.8599C173.665 92.0646 168.864 78.693 165.64 68.3025C159.476 48.4352 147.468 34.8766 137.771 26.6502C133.607 23.1181 129.495 22.8563 125.696 23.0941C118.024 23.5741 100.952 36.8426 85.4702 53.0313C81.5776 57.1015 92.8143 57.3552 97.6978 58.9572C102.581 60.5591 102.581 64.6772 101.708 69.6683C99.8051 80.5485 94.6697 90.9282 89.514 99.4821C77.389 119.598 56.48 134.938 52.2082 139.811C41.6483 151.857 25.6093 158.295 25.6035 161.736C25.5822 174.298 57.4133 173.774 67.0377 177.363C81.0779 182.598 90.7293 193.554 99.9884 197.155C108.634 197.612 116.314 195.231 123.037 190.963C126.641 188.318 130.632 184.7 134.745 180.972" stroke="black" stroke-linecap="round"/>
<path d="M180 33H176C174.939 33 173.922 32.5786 173.172 31.8284C172.421 31.0783 172 30.0609 172 29V19C172 17.9391 172.421 16.9217 173.172 16.1716C173.922 15.4214 174.939 15 176 15H208C209.061 15 210.078 15.4214 210.828 16.1716C211.579 16.9217 212 17.9391 212 19V29C212 30.0609 211.579 31.0783 210.828 31.8284C210.078 32.5786 209.061 33 208 33H204M180 15V3C180 2.46957 180.211 1.96086 180.586 1.58579C180.961 1.21071 181.47 1 182 1H202C202.53 1 203.039 1.21071 203.414 1.58579C203.789 1.96086 204 2.46957 204 3V15M182 25H202C203.105 25 204 25.8954 204 27V39C204 40.1046 203.105 41 202 41H182C180.895 41 180 40.1046 180 39V27C180 25.8954 180.895 25 182 25Z" stroke="black" stroke-width="2" stroke-linecap="round" stroke-linejoin="round"/>
<path d="M264 182H264.02M274 182V174M284 182V166M294 182V158M304 150V182" stroke="black" stroke-width="2" stroke-linecap="round" stroke-linejoin="round"/>
<path d="M67 220C67 223.314 58.9411 226 49 226C39.0589 226 31 223.314 31 220M67 220C67 216.686 58.9411 214 49 214C39.0589 214 31 216.686 31 220M67 220V248C67 249.591 65.1036 251.117 61.7279 252.243C58.3523 253.368 53.7739 254 49 254C44.2261 254 39.6477 253.368 36.2721 252.243C32.8964 251.117 31 249.591 31 248V220M31 234C31 235.591 32.8964 237.117 36.2721 238.243C39.6477 239.368 44.2261 240 49 240C53.7739 240 58.3523 239.368 61.7279 238.243C65.1036 237.117 67 235.591 67 234" stroke="black" stroke-width="2" stroke-linecap="round" stroke-linejoin="round"/>
<path d="M216 282L209.828 275.828C209.078 275.078 208.061 274.657 207 274.657C205.939 274.657 204.922 275.078 204.172 275.828L186 294M184 258H212C214.209 258 216 259.791 216 262V290C216 292.209 214.209 294 212 294H184C181.791 294 180 292.209 180 290V262C180 259.791 181.791 258 184 258ZM196 270C196 272.209 194.209 274 192 274C189.791 274 188 272.209 188 270C188 267.791 189.791 266 192 266C194.209 266 196 267.791 196 270Z" stroke="black" stroke-width="2" stroke-linecap="round" stroke-linejoin="round"/>
<path d="M264 73H264.02M252 41H276C278.209 41 280 42.7909 280 45V77C280 79.2091 278.209 81 276 81H252C249.791 81 248 79.2091 248 77V45C248 42.7909 249.791 41 252 41Z" stroke="black" stroke-width="2" stroke-linecap="round" stroke-linejoin="round"/>
<path d="M1 120L21 140L11 150V110L21 120L1 140" stroke="black" stroke-width="2" stroke-linecap="round" stroke-linejoin="round"/>
<path d="M61 49H77M69 41V49M53 13H85C87.2091 13 89 14.7909 89 17V37C89 39.2091 87.2091 41 85 41H53C50.7909 41 49 39.2091 49 37V17C49 14.7909 50.7909 13 53 13Z" stroke="black" stroke-width="2" stroke-linecap="round" stroke-linejoin="round"/>
</svg>
